<?xml version="1.0" encoding="UTF-8"?>
<svg width="14px" height="14px" viewBox="0 0 14 14" version="1.1" xmlns="http://www.w3.org/2000/svg" xmlns:xlink="http://www.w3.org/1999/xlink">
    <!-- Generator: Sketch 51 (57462) - http://www.bohemiancoding.com/sketch -->
    <title>icon_fail</title>
    <desc>Created with Sketch.</desc>
    <defs></defs>
    <g id="Page-4" stroke="none" stroke-width="1" fill="none" fill-rule="evenodd">
        <g id="icon" transform="translate(-290.000000, -140.000000)">
            <g id="icon_fail" transform="translate(290.000000, 140.000000)">
                <rect id="Rectangle-35-Copy-19" x="0" y="0" width="14" height="14"></rect>
                <path d="M7,14 C3.13400675,14 0,10.8659932 0,7 C0,3.13400675 3.13400675,0 7,0 C10.8659932,0 14,3.13400675 14,7 C14,10.8659932 10.8659932,14 7,14 Z M7,13 C10.3137085,13 13,10.3137085 13,7 C13,3.6862915 10.3137085,1 7,1 C3.6862915,1 1,3.6862915 1,7 C1,10.3137085 3.6862915,13 7,13 Z M7,6.29289322 L9.47487373,3.81801948 L10.1819805,4.52512627 L7.70710678,7 L10.1819805,9.47487373 L9.47487373,10.1819805 L7,7.70710678 L4.52512627,10.1819805 L3.81801948,9.47487373 L6.29289322,7 L3.81801948,4.52512627 L4.52512627,3.81801948 L7,6.29289322 Z" id="Combined-Shape" fill="#F5222D" fill-rule="nonzero"></path>
            </g>
        </g>
    </g>
</svg>