<?xml version="1.0" encoding="UTF-8"?>
<svg width="14px" height="14px" viewBox="0 0 14 14" version="1.1" xmlns="http://www.w3.org/2000/svg" xmlns:xlink="http://www.w3.org/1999/xlink">
    <!-- Generator: Sketch 51 (57462) - http://www.bohemiancoding.com/sketch -->
    <title>icon_success</title>
    <desc>Created with Sketch.</desc>
    <defs></defs>
    <g id="Page-4" stroke="none" stroke-width="1" fill="none" fill-rule="evenodd">
        <g id="icon" transform="translate(-320.000000, -140.000000)">
            <g id="icon_success" transform="translate(320.000000, 140.000000)">
                <rect id="Rectangle-35-Copy-19" x="0" y="0" width="14" height="14"></rect>
                <path d="M7,14 C3.13400675,14 0,10.8659932 0,7 C0,3.13400675 3.13400675,0 7,0 C10.8659932,0 14,3.13400675 14,7 C14,10.8659932 10.8659932,14 7,14 Z M7,13 C10.3137085,13 13,10.3137085 13,7 C13,3.6862915 10.3137085,1 7,1 C3.6862915,1 1,3.6862915 1,7 C1,10.3137085 3.6862915,13 7,13 Z M10.017767,4.66421356 L10.7248737,5.37132034 L6.10355339,9.99264069 L3.27512627,7.16421356 L3.98223305,6.45710678 L6.10355339,8.57842712 L10.017767,4.66421356 Z" id="Combined-Shape" fill="#52C41A" fill-rule="nonzero"></path>
            </g>
        </g>
    </g>
</svg>