<?xml version="1.0" encoding="UTF-8"?>
<svg width="14px" height="14px" viewBox="0 0 14 14" version="1.1" xmlns="http://www.w3.org/2000/svg" xmlns:xlink="http://www.w3.org/1999/xlink">
    <!-- Generator: Sketch 51 (57462) - http://www.bohemiancoding.com/sketch -->
    <title>icon_out</title>
    <desc>Created with Sketch.</desc>
    <defs></defs>
    <g id="Page-4" stroke="none" stroke-width="1" fill="none" fill-rule="evenodd" opacity="0.65">
        <g id="icon" transform="translate(-410.000000, -140.000000)">
            <g id="icon_out" transform="translate(410.000000, 140.000000)">
                <rect id="Rectangle-43-Copy-3" x="0" y="0" width="14" height="14"></rect>
                <g id="login" fill="#000000" fill-rule="nonzero">
                    <path d="M6.05527344,8.51074219 C5.8625,8.70351562 5.8625,9.01386719 6.05390625,9.20527344 C6.14960937,9.30097656 6.27675781,9.35019531 6.40253906,9.35019531 C6.52832031,9.35019531 6.65546875,9.30234375 6.75117187,9.20664062 L8.6078125,7.35 C8.80058594,7.15722656 8.80058594,6.84277344 8.6078125,6.65 L6.75117188,4.79472656 C6.55839844,4.60195312 6.24667969,4.60195312 6.05527344,4.79472656 C5.8625,4.9875 5.8625,5.29921875 6.05527344,5.490625 L7.07109375,6.50644531 L0.493554688,6.5078125 C0.221484375,6.5078125 0.0013671875,6.72792969 0.0013671875,7 C0.0013671875,7.27207031 0.222851563,7.49355469 0.493554688,7.49355469 L7.07109375,7.49492187 L6.05527344,8.51074219 Z" id="Shape"></path>
                    <path d="M13.4490234,4.2765625 C13.0962891,3.44257812 12.5917969,2.69335938 11.9492187,2.05078125 C11.3066406,1.40820312 10.5587891,0.90234375 9.72480469,0.549609375 C8.86210937,0.184570312 7.94472656,0 7,0 C5.88847656,0 4.82480469,0.252929687 3.8390625,0.751953125 C2.89980469,1.22910156 2.06582031,1.92363281 1.42871094,2.76445312 C1.26328125,2.98046875 1.30566406,3.28945312 1.52167969,3.45351562 C1.73769531,3.61894531 2.04667969,3.5765625 2.21074219,3.36054687 C2.76035156,2.63867187 3.47675781,2.03984375 4.28476562,1.63105469 C5.13105469,1.20175781 6.04433594,0.984375 7,0.984375 C7.81210937,0.984375 8.59960937,1.14296875 9.340625,1.45605469 C10.0570312,1.75820312 10.7009766,2.19296875 11.2533203,2.7453125 C11.8056641,3.29765625 12.2390625,3.94160156 12.5425781,4.65800781 C12.8570312,5.40039062 13.015625,6.18789062 13.015625,7 C13.015625,7.81210937 12.8570312,8.59960938 12.5439453,9.340625 C12.2417969,10.0570312 11.8070312,10.7009766 11.2546875,11.2533203 C10.7023437,11.8056641 10.0583984,12.2390625 9.34199219,12.5425781 C8.59960937,12.8583984 7.81210937,13.015625 7,13.015625 C6.04433594,13.015625 5.13105469,12.7982422 4.28203125,12.3675781 C3.47539062,11.9587891 2.75761719,11.3599609 2.20800781,10.6380859 C2.04394531,10.4220703 1.73496094,10.3810547 1.51894531,10.5451172 C1.30292969,10.7091797 1.26191406,11.0181641 1.42597656,11.2341797 C2.06582031,12.075 2.89980469,12.7708984 3.8390625,13.2466797 C4.82480469,13.7457031 5.88847656,13.9986328 7,13.9986328 C7.94472656,13.9986328 8.86210937,13.8140625 9.72480469,13.4490234 C10.5574219,13.0976562 11.3066406,12.5917969 11.9492187,11.9492188 C12.5917969,11.3066406 13.0976562,10.5587891 13.4503906,9.72480469 C13.8154297,8.86210937 14,7.94472656 14,7 C14,6.05527344 13.8154297,5.13789062 13.4490234,4.2765625 Z" id="Shape"></path>
                </g>
            </g>
        </g>
    </g>
</svg>