<?xml version="1.0" encoding="UTF-8"?>
<svg width="10px" height="6px" viewBox="0 0 10 6" version="1.1" xmlns="http://www.w3.org/2000/svg" xmlns:xlink="http://www.w3.org/1999/xlink">
    <!-- Generator: Sketch 51 (57462) - http://www.bohemiancoding.com/sketch -->
    <title>icon_arrow_down</title>
    <desc>Created with Sketch.</desc>
    <defs></defs>
    <g id="Page-4" stroke="none" stroke-width="1" fill="none" fill-rule="evenodd">
        <g id="icon" transform="translate(-81.000000, -203.000000)">
            <g id="icon_arrow_down" transform="translate(86.000000, 206.000000) rotate(90.000000) translate(-86.000000, -206.000000) translate(80.000000, 200.000000)">
                <rect id="Rectangle-36-Copy-5" x="-1.13686838e-13" y="0" width="12" height="12"></rect>
                <path d="M3.52265625,10.4964844 C3.63515625,10.4964844 3.74882812,10.4589844 3.84375,10.3839844 L8.81015625,6.3890625 C8.93085937,6.29179687 9.00117187,6.1453125 9.00117187,5.98945312 C9.00117187,5.83476562 8.93085937,5.68710937 8.81015625,5.59101562 L3.86484375,1.6171875 C3.64453125,1.44023437 3.32226562,1.47539062 3.1453125,1.69570312 C2.96835937,1.91601562 3.00351562,2.23828125 3.22382812,2.41523437 L7.67226562,5.990625 L3.2015625,9.5859375 C2.98125,9.76289062 2.94609375,10.0851562 3.12304687,10.3054687 C3.225,10.4308594 3.37265625,10.4964844 3.52265625,10.4964844 Z" id="Shape" fill-opacity="0.65" fill="#000000" fill-rule="nonzero"></path>
            </g>
        </g>
    </g>
</svg>