<?xml version="1.0" encoding="UTF-8"?>
<svg width="14px" height="14px" viewBox="0 0 14 14" version="1.1" xmlns="http://www.w3.org/2000/svg" xmlns:xlink="http://www.w3.org/1999/xlink">
    <!-- Generator: Sketch 51 (57462) - http://www.bohemiancoding.com/sketch -->
    <title>icon_run</title>
    <desc>Created with Sketch.</desc>
    <defs></defs>
    <g id="Page-4" stroke="none" stroke-width="1" fill="none" fill-rule="evenodd">
        <g id="icon" transform="translate(-260.000000, -140.000000)">
            <g id="icon_run" transform="translate(260.000000, 140.000000)">
                <rect id="Rectangle-35-Copy-19" x="0" y="0" width="14" height="14"></rect>
                <path d="M8.70710678,6.5 L7.41421356,5.20710678 L8.12132034,4.5 L10.5961941,6.97487373 L8.12132034,9.44974747 L7.41421356,8.74264069 L8.65685425,7.5 L3.5,7.5 L3.5,6.5 L8.70710678,6.5 Z M7,14 C3.13400675,14 0,10.8659932 0,7 C0,3.13400675 3.13400675,0 7,0 C10.8659932,0 14,3.13400675 14,7 C14,10.8659932 10.8659932,14 7,14 Z M7,13 C10.3137085,13 13,10.3137085 13,7 C13,3.6862915 10.3137085,1 7,1 C3.6862915,1 1,3.6862915 1,7 C1,10.3137085 3.6862915,13 7,13 Z" id="Combined-Shape" fill="#016FFF" fill-rule="nonzero"></path>
            </g>
        </g>
    </g>
</svg>