<?xml version="1.0" encoding="UTF-8"?>
<svg width="22px" height="22px" viewBox="0 0 22 22" version="1.1" xmlns="http://www.w3.org/2000/svg" xmlns:xlink="http://www.w3.org/1999/xlink">
    <!-- Generator: Sketch 51 (57462) - http://www.bohemiancoding.com/sketch -->
    <title>icon_question</title>
    <desc>Created with Sketch.</desc>
    <defs></defs>
    <g id="Page-4" stroke="none" stroke-width="1" fill="none" fill-rule="evenodd">
        <g id="icon" transform="translate(-20.000000, -20.000000)" fill="#FAAD14" fill-rule="nonzero">
            <g id="icon_question" transform="translate(20.000000, 20.000000)">
                <path d="M11,0 C4.92421875,0 0,4.92421875 0,11 C0,17.0757812 4.92421875,22 11,22 C17.0757812,22 22,17.0757812 22,11 C22,4.92421875 17.0757812,0 11,0 Z M10.8603516,17.4582031 C10.346875,17.4582031 9.93007813,17.0414062 9.93007813,16.5279297 C9.93007813,16.0144531 10.346875,15.5976562 10.8603516,15.5976562 C11.3738281,15.5976562 11.790625,16.0144531 11.790625,16.5279297 C11.790625,17.0414062 11.3738281,17.4582031 10.8603516,17.4582031 Z M14.8521484,8.40039062 C14.7984375,9.39511719 14.4933594,10.1792969 12.9679687,11.7046875 C12.1945312,12.478125 11.7068359,13.0582031 11.6574219,13.5673828 C11.61875,13.9669922 11.2814453,14.265625 10.8882812,14.265625 C10.8625,14.265625 10.8367187,14.2634766 10.8109375,14.2613281 C10.3855469,14.2205078 10.0761719,13.8402344 10.1169922,13.4148437 C10.2222656,12.3427734 11.0085937,11.4769531 11.8744141,10.6111328 C13.2601562,9.22539062 13.2837891,8.78496094 13.3074219,8.31875 C13.3353516,7.77519531 13.1355469,7.24882812 12.7402344,6.83417969 C12.2912109,6.36152344 11.6552734,6.09082031 10.9957031,6.09082031 C10.9935547,6.09082031 10.9914062,6.09082031 10.9914062,6.09082031 C9.72167969,6.09296875 8.68613281,7.12851563 8.68613281,8.40039062 C8.68613281,8.82792969 8.34023437,9.17382812 7.91269531,9.17382812 C7.48515625,9.17382812 7.13925781,8.82792969 7.13925781,8.40039062 C7.13925781,7.37128906 7.53886719,6.40449219 8.26503906,5.67617187 C8.99121094,4.94785156 9.95800781,4.54609375 10.9871094,4.54394531 C12.0720703,4.54179687 13.1205078,4.98867187 13.8617187,5.76855469 C14.5535156,6.49257812 14.9037109,7.42714844 14.8521484,8.40039062 Z" id="Shape"></path>
            </g>
        </g>
    </g>
</svg>