<?xml version="1.0" encoding="UTF-8"?>
<svg width="6px" height="10px" viewBox="0 0 6 10" version="1.1" xmlns="http://www.w3.org/2000/svg" xmlns:xlink="http://www.w3.org/1999/xlink">
    <!-- Generator: Sketch 51 (57462) - http://www.bohemiancoding.com/sketch -->
    <title>icon_arrow_right</title>
    <desc>Created with Sketch.</desc>
    <defs></defs>
    <g id="Page-4" stroke="none" stroke-width="1" fill="none" fill-rule="evenodd">
        <g id="icon" transform="translate(-53.000000, -201.000000)">
            <g id="icon_arrow_right" transform="translate(56.000000, 206.000000) scale(-1, 1) translate(-56.000000, -206.000000) translate(50.000000, 200.000000)">
                <rect id="Rectangle-36-Copy-5" x="0" y="0" width="12" height="12"></rect>
                <path d="M3.52265625,10.4964844 C3.63515625,10.4964844 3.74882813,10.4589844 3.84375,10.3839844 L8.81015625,6.3890625 C8.93085938,6.29179687 9.00117188,6.1453125 9.00117188,5.98945312 C9.00117188,5.83476562 8.93085938,5.68710937 8.81015625,5.59101562 L3.86484375,1.6171875 C3.64453125,1.44023437 3.32226563,1.47539062 3.1453125,1.69570312 C2.96835938,1.91601562 3.00351563,2.23828125 3.22382813,2.41523437 L7.67226563,5.990625 L3.2015625,9.5859375 C2.98125,9.76289062 2.94609375,10.0851562 3.12304688,10.3054687 C3.225,10.4308594 3.37265625,10.4964844 3.52265625,10.4964844 Z" id="Shape" fill-opacity="0.65" fill="#000000" fill-rule="nonzero"></path>
            </g>
        </g>
    </g>
</svg>