<?xml version="1.0" encoding="UTF-8"?>
<svg width="23px" height="20px" viewBox="0 0 23 20" version="1.1" xmlns="http://www.w3.org/2000/svg" xmlns:xlink="http://www.w3.org/1999/xlink">
    <!-- Generator: Sketch 51 (57462) - http://www.bohemiancoding.com/sketch -->
    <title>icon_logo</title>
    <desc>Created with Sketch.</desc>
    <defs>
        <linearGradient x1="50%" y1="0%" x2="50%" y2="100%" id="linearGradient-1">
            <stop stop-color="#FFAC00" offset="0%"></stop>
            <stop stop-color="#FF8D00" offset="100%"></stop>
        </linearGradient>
    </defs>
    <g id="Page-4" stroke="none" stroke-width="1" fill="none" fill-rule="evenodd">
        <g id="icon" transform="translate(-63.000000, -22.000000)" fill="url(#linearGradient-1)">
            <g id="icon_logo" transform="translate(62.000000, 20.000000)">
                <path d="M4.06405089,2 L2.17277795,6.72953038 C1.39429603,8.67539816 1,10.7243895 1,12.8192136 L1,21.1304348 L5.18425604,21.1304348 C7.24807562,21.1304348 9.21888179,20.5292176 10.8971675,19.4110345 C10.8526828,19.3678978 10.8075241,19.3247611 10.7637134,19.2802765 L10.1200336,18.6372706 C10.0445444,18.5644775 9.52623049,18.0616658 8.95736578,17.5049333 C7.81896236,18.1479391 6.52823261,18.4916844 5.18425604,18.4916844 L3.63875038,18.4916844 L3.63875038,12.8192136 C3.63875038,11.0613947 3.96968945,9.34199437 4.62347946,7.70954138 L5.85085224,4.63807637 L18.577515,4.63807637 L19.8069098,7.70954138 C20.4593518,9.34199437 20.7909649,11.0613947 20.7909649,12.8192136 L20.7909649,18.4916844 L19.2441112,18.4916844 C17.4168693,18.4916844 15.6860108,17.8567667 14.3042896,16.6934249 L14.3022676,16.6947729 C14.130395,16.5512087 13.9645884,16.3995564 13.804174,16.2391419 L13.1449919,15.5799598 L13.1301636,15.5651316 C13.1187055,15.5536734 12.1825051,14.6451075 11.4127854,13.888868 L11.4141334,13.8875199 C11.191036,13.6684666 10.9827668,13.4615454 10.8156122,13.2943909 C10.4307523,12.910205 10.2258532,12.3999792 10.2359634,11.8567269 C10.2460735,11.3141485 10.471867,10.8113369 10.8722291,10.4406312 C11.2490009,10.0921678 11.7315922,9.91759918 12.2148576,9.91759918 C12.698123,9.91759918 13.1813884,10.0921678 13.5574862,10.4406312 C13.9571743,10.8113369 14.1829678,11.3141485 14.1930779,11.8567269 C14.2038621,12.3999792 13.9976149,12.910205 13.6141031,13.2943909 C13.5675963,13.3408976 13.4921072,13.4157127 13.3984198,13.5067041 C13.8830332,13.9805334 14.2806993,14.3647192 14.2881134,14.3728074 L14.2921574,14.3768514 L14.2968755,14.3815695 L14.3117037,14.3957237 L14.3157478,14.3997678 L14.3204659,14.4044858 L14.979648,15.0636679 C15.0794015,15.1640955 15.1825251,15.2584569 15.2883447,15.3494483 C15.3685519,15.2705891 15.4359529,15.2045361 15.4804376,15.1600514 C16.3748493,14.2649657 16.8560927,13.0733155 16.8311543,11.8068501 C16.8075639,10.5410587 16.2818359,9.36828077 15.3510276,8.50554756 C13.5925347,6.87579062 10.8371806,6.87579062 9.07801363,8.50554756 C8.1478794,9.36828077 7.62147734,10.5403847 7.59721297,11.8068501 C7.57362261,13.0733155 8.05351795,14.2649657 8.94927766,15.1600514 C9.31526526,15.526713 9.85784357,16.0578331 10.3289768,16.5175082 C10.3283028,16.5181822 10.3276288,16.5188562 10.3276288,16.5188562 C10.8108942,16.9920114 11.2193444,17.3883295 11.2860714,17.4523605 L11.9385134,18.1054765 C12.0295048,18.1957939 12.1211702,18.2827412 12.2141836,18.3696885 L12.2148576,18.3690145 C14.130395,20.1524458 16.6127749,21.1304348 19.2441112,21.1304348 L23.4290413,21.1304348 L23.4290413,12.8192136 C23.4290413,10.7243895 23.0347452,8.67472415 22.2569373,6.72953038 L20.3643164,2 L4.06405089,2 Z" id="Fill-1"></path>
            </g>
        </g>
    </g>
</svg>