<?xml version="1.0" encoding="UTF-8"?>
<svg width="12px" height="14px" viewBox="0 0 12 14" version="1.1" xmlns="http://www.w3.org/2000/svg" xmlns:xlink="http://www.w3.org/1999/xlink">
    <!-- Generator: Sketch 51 (57462) - http://www.bohemiancoding.com/sketch -->
    <title>icon_submit_sel</title>
    <desc>Created with Sketch.</desc>
    <defs></defs>
    <g id="Page-4" stroke="none" stroke-width="1" fill="none" fill-rule="evenodd">
        <g id="icon" transform="translate(-21.000000, -140.000000)">
            <g id="icon_submit_sel" transform="translate(20.000000, 140.000000)">
                <rect id="Rectangle-7" x="0" y="0" width="14" height="14"></rect>
                <path d="M7.00467552,1 L2,1 L2,13 L12,13 L12,5.00611571 L13,5.00611571 L13,14 L1,14 L1,0 L7.00467552,6.9348971e-12 L7.00467552,1 Z M4,10 L10,10 L10,11 L4,11 L4,10 Z M4,7 L10,7 L10,8 L4,8 L4,7 Z M4,4 L7,4 L7,5 L4,5 L4,4 Z M8,4.24264069 L12.2426407,-3.73034936e-14 L12.9497475,0.707106781 L8.70710678,4.94974747 L8,4.24264069 Z" id="Combined-Shape" fill="#FFFFFF" fill-rule="nonzero"></path>
            </g>
        </g>
    </g>
</svg>