<?xml version="1.0" encoding="UTF-8"?>
<svg width="12px" height="14px" viewBox="0 0 12 14" version="1.1" xmlns="http://www.w3.org/2000/svg" xmlns:xlink="http://www.w3.org/1999/xlink">
    <!-- Generator: Sketch 51 (57462) - http://www.bohemiancoding.com/sketch -->
    <title>icon_Instance</title>
    <desc>Created with Sketch.</desc>
    <defs></defs>
    <g id="Page-4" stroke="none" stroke-width="1" fill="none" fill-rule="evenodd" opacity="0.649999976">
        <g id="icon" transform="translate(-81.000000, -160.000000)">
            <g id="icon_Instance" transform="translate(80.000000, 160.000000)">
                <rect id="Rectangle-7" x="0" y="0" width="14" height="14"></rect>
                <polygon id="Rectangle-3" fill="#FFFFFF" fill-rule="nonzero" points="12 2 11 2 11 1 13 1 13 14 1 14 1 1 2.99494356 1 2.99494356 2 2 2 2 13 12 13"></polygon>
                <path d="M4,0 L10,0 L10,3 L4,3 L4,0 Z M5,1 L5,2 L9,2 L9,1 L5,1 Z" id="Rectangle-3" fill="#FFFFFF" fill-rule="nonzero"></path>
                <polygon id="Rectangle-4" fill="#FFFFFF" fill-rule="nonzero" transform="translate(7.035534, 7.035534) rotate(45.000000) translate(-7.035534, -7.035534) " points="8.03553391 4.03553391 9.03553391 4.03553391 9.03553391 10.0355339 5.03553391 10.0355339 5.03553391 9.03553391 8.03553391 9.03553391"></polygon>
            </g>
        </g>
    </g>
</svg>