<?xml version="1.0" encoding="UTF-8"?>
<svg width="12px" height="14px" viewBox="0 0 12 14" version="1.1" xmlns="http://www.w3.org/2000/svg" xmlns:xlink="http://www.w3.org/1999/xlink">
    <path d="M10,1 L13,1 L13,14 L1,14 L1,1 L4,1 L4,0 L5,0 L5,1 L9,1 L9,0 L10,0 L10,1 Z M10,2 L10,3 L9,3 L9,2 L5,2 L5,3 L4,3 L4,2 L2,2 L2,13 L12,13 L12,2 L10,2 Z M4,9 L5,9 L5,10 L4,10 L4,9 Z M4,6 L5,6 L5,7 L4,7 L4,6 Z M6,9 L10,9 L10,10 L6,10 L6,9 Z M6,6 L10,6 L10,7 L6,7 L6,6 Z" id="Combined-Shape" fill="currentColor" fill-rule="nonzero"></path>
</svg>