<?xml version="1.0" encoding="UTF-8"?>
<svg width="14px" height="14px" viewBox="0 0 14 14" version="1.1" xmlns="http://www.w3.org/2000/svg" xmlns:xlink="http://www.w3.org/1999/xlink">
    <!-- Generator: Sketch 51 (57462) - http://www.bohemiancoding.com/sketch -->
    <title>icon_no</title>
    <desc>Created with Sketch.</desc>
    <defs></defs>
    <g id="Page-4" stroke="none" stroke-width="1" fill="none" fill-rule="evenodd">
        <g id="icon" transform="translate(-200.000000, -140.000000)">
            <g id="icon_no" transform="translate(200.000000, 140.000000)">
                <rect id="Rectangle-35-Copy-19" x="0" y="0" width="14" height="14"></rect>
                <path d="M7,14 C3.13400675,14 0,10.8659932 0,7 C0,3.13400675 3.13400675,0 7,0 C10.8659932,0 14,3.13400675 14,7 C14,10.8659932 10.8659932,14 7,14 Z M7,13 C10.3137085,13 13,10.3137085 13,7 C13,3.6862915 10.3137085,1 7,1 C3.6862915,1 1,3.6862915 1,7 C1,10.3137085 3.6862915,13 7,13 Z M4,6.5 L10,6.5 L10,7.5 L4,7.5 L4,6.5 Z" id="Combined-Shape" fill-opacity="0.45" fill="#000000" fill-rule="nonzero"></path>
            </g>
        </g>
    </g>
</svg>