<?xml version="1.0" encoding="UTF-8"?>
<svg width="12px" height="14px" viewBox="0 0 12 14" fill="currentColor" version="1.1" xmlns="http://www.w3.org/2000/svg" xmlns:xlink="http://www.w3.org/1999/xlink">
    <path d="M7.00467552,1 L2,1 L2,13 L12,13 L12,5.00611571 L13,5.00611571 L13,14 L1,14 L1,0 L7.00467552,6.9348971e-12 L7.00467552,1 Z M4,10 L10,10 L10,11 L4,11 L4,10 Z M4,7 L10,7 L10,8 L4,8 L4,7 Z M4,4 L7,4 L7,5 L4,5 L4,4 Z M8,4.24264069 L12.2426407,-3.73034936e-14 L12.9497475,0.707106781 L8.70710678,4.94974747 L8,4.24264069 Z" id="Combined-Shape"></path>
</svg>