<?xml version="1.0" encoding="UTF-8"?>
<svg width="151px" height="21px" viewBox="0 0 151 21" version="1.1" xmlns="http://www.w3.org/2000/svg" xmlns:xlink="http://www.w3.org/1999/xlink">
    <!-- Generator: Sketch 51 (57462) - http://www.bohemiancoding.com/sketch -->
    <title>Icon_logo_txt</title>
    <desc>Created with Sketch.</desc>
    <defs>
        <polygon id="path-1" points="0.0667826087 0.426086957 11.9624348 0.426086957 11.9624348 19.8529565 0.0667826087 19.8529565"></polygon>
        <polygon id="path-3" points="0.838695652 0.426086957 9.99468787 0.426086957 9.99468787 19.8521739 0.838695652 19.8521739"></polygon>
        <polygon id="path-5" points="0.241043478 0.437478261 20.386087 0.437478261 20.386087 19.8522609 0.241043478 19.8522609"></polygon>
    </defs>
    <g id="Page-4" stroke="none" stroke-width="1" fill="none" fill-rule="evenodd">
        <g id="icon" transform="translate(-112.000000, -20.000000)">
            <g id="Icon_logo_txt" transform="translate(83.000000, 20.000000)">
                <path d="M122,4.62 L130.1,4.62 L130.1,1 L131.6,1 L131.6,4.62 L139.68,4.62 L139.68,6.02 L131.6,6.02 L131.6,9.92 L136.96,9.92 L136.96,19.26 L135.54,19.26 L135.54,18.1 L126.16,18.1 L126.16,19.26 L124.74,19.26 L124.74,9.92 L130.1,9.92 L130.1,6.02 L122,6.02 L122,4.62 Z M126.16,16.74 L135.54,16.74 L135.54,11.26 L126.16,11.26 L126.16,16.74 Z M144.54,1.78 L157.06,1.78 L157.06,11.02 L144.54,11.02 L144.54,1.78 Z M155.64,9.64 L155.64,7.04 L151.46,7.04 L151.46,9.64 L155.64,9.64 Z M150.1,9.64 L150.1,7.04 L145.96,7.04 L145.96,9.64 L150.1,9.64 Z M145.96,5.76 L150.1,5.76 L150.1,3.14 L145.96,3.14 L145.96,5.76 Z M151.46,3.14 L151.46,5.76 L155.64,5.76 L155.64,3.14 L151.46,3.14 Z M143.98,12.7 L145.36,12.98 C144.78,15.22 143.96,17.14 142.9,18.78 L141.66,18 C142.72,16.4 143.5,14.62 143.98,12.7 Z M151.14,11.72 C151.92,12.8 152.6,13.98 153.18,15.22 L151.86,15.8 C151.24,14.42 150.56,13.2 149.84,12.14 L151.14,11.72 Z M156.98,12.22 C158.1,13.86 159.08,15.6 159.9,17.46 L158.6,18.06 C157.7,16.02 156.7,14.22 155.62,12.66 L156.98,12.22 Z M153.76,19.1 L148.62,19.1 C147.26,19.1 146.58,18.38 146.58,16.98 L146.58,12.66 L148,12.66 L148,16.66 C148,17.38 148.36,17.74 149.08,17.74 L153.5,17.74 C153.94,17.74 154.24,17.62 154.42,17.38 C154.64,17.1 154.8,16.3 154.88,14.96 L156.26,15.42 C156.14,17.18 155.86,18.24 155.44,18.62 C155.08,18.94 154.52,19.1 153.76,19.1 Z M173.88,1.02 L175.32,1.02 L175.32,3.16 L179.02,3.16 L179.02,4.46 L175.32,4.46 L175.32,6.8 L179.9,6.8 L179.9,8.16 L169.26,8.16 L169.26,6.8 L173.88,6.8 L173.88,4.46 L170.36,4.46 L170.36,3.16 L173.88,3.16 L173.88,1.02 Z M169.74,10.52 L176.14,10.52 L176.14,9.22 L177.54,9.22 L177.54,10.52 L179.74,10.52 L179.74,11.88 L177.54,11.88 L177.54,17.52 C177.54,18.64 177,19.22 175.96,19.22 L173.42,19.22 L173.12,17.86 C173.92,17.92 174.7,17.96 175.46,17.96 C175.9,17.96 176.14,17.68 176.14,17.16 L176.14,11.88 L169.74,11.88 L169.74,10.52 Z M171.22,12.8 C172.26,13.96 173.06,14.96 173.62,15.84 L172.48,16.64 C171.9,15.68 171.1,14.64 170.1,13.5 L171.22,12.8 Z M163.66,6.6 C163.46,7.62 163.22,8.6 162.94,9.54 L161.68,9.18 C162.3,7.1 162.66,4.92 162.74,2.62 L164.06,2.72 C164.02,3.58 163.96,4.4 163.86,5.2 L165.54,5.2 L165.54,1.04 L166.92,1.04 L166.92,5.2 L168.74,5.2 L168.74,6.6 L166.92,6.6 L166.92,11.4 C167.56,11.14 168.18,10.88 168.8,10.6 L168.8,11.96 C168.16,12.24 167.54,12.5 166.92,12.74 L166.92,19.36 L165.54,19.36 L165.54,13.26 C164.42,13.64 163.26,13.98 162.1,14.3 L161.76,12.9 C163.04,12.64 164.3,12.3 165.54,11.9 L165.54,6.6 L163.66,6.6 Z" id="古思特" fill="#FFFFFF"></path>
                <rect id="Rectangle-Copy-2" fill="#FFFFFF" x="112" y="1" width="1" height="18"></rect>
                <g id="Page-1">
                    <polygon id="Fill-1" fill="#FEFEFE" points="44.9586957 15.6733913 50.3917391 15.6733913 50.3917391 13.5125217 41.9143478 13.5125217 41.9143478 8.90904348 38.5613043 8.90904348 38.5613043 13.5125217 33.963913 13.5125217 33.5769565 13.5125217 35.8847826 11.2107826 33.5769565 8.90904348 30.083913 8.90904348 32.3917391 11.2107826 30.083913 13.5125217 30.083913 15.6733913 35.4569565 15.6733913 29.3291304 20.2951304 34.5291304 20.2951304 40.2082609 16.0116522 45.8856522 20.2951304 51.0865217 20.2951304"></polygon>
                    <polygon id="Fill-2" fill="#FEFEFE" points="38.5606957 0.880956522 38.5606957 1.78965217 30.0833043 1.78965217 30.0833043 3.95052174 37.1650435 3.95052174 38.5606957 3.95052174 39.8476522 3.95052174 38.5606957 4.72704348 38.5606957 5.57052174 30.0833043 5.57052174 30.0833043 7.7313913 47.0389565 7.7313913 47.0389565 10.9183478 50.3911304 10.9183478 50.3911304 7.7313913 50.3911304 7.72965217 50.3911304 5.57052174 41.9137391 5.57052174 41.9137391 3.95052174 50.3911304 3.95052174 50.3911304 1.78965217 41.9137391 1.78965217 41.9137391 0.880956522"></polygon>
                    <g id="Group-12" transform="translate(53.913043, 0.443391)">
                        <g id="Group-5">
                            <mask id="mask-2" fill="white">
                                <use xlink:href="#path-1"></use>
                            </mask>
                            <g id="Clip-4"></g>
                            <path d="M6.0146087,13.6590435 L5.08765217,12.6938261 C4.35721739,11.9329565 3.9546087,10.9668696 3.9546087,9.97208696 L3.9546087,3.74426087 L7.1293913,3.74426087 L8.0746087,3.74426087 L9.13547826,3.74426087 L8.0746087,4.47121739 L8.0746087,10.219913 C8.0746087,11.2146957 7.672,11.9329565 6.94156522,12.6938261 L6.0146087,13.6590435 Z M7.81026087,15.5286087 L9.04156522,14.246 C10.1893913,13.052087 10.8206957,11.5338261 10.8206957,9.97208696 L10.8206957,0.426 L8.0746087,0.426 L8.0746087,1.33469565 L3.9546087,1.33469565 L3.9546087,0.426 L1.20852174,0.426 L1.20852174,9.97208696 C1.20852174,11.5338261 1.84069565,13.052087 2.98765217,14.246 L4.21895652,15.5286087 L0.0667826087,19.8529565 L3.65808696,19.8529565 L6.0146087,17.3981739 L8.37113043,19.8529565 L11.9624348,19.8529565 L7.81026087,15.5286087 Z" id="Fill-3" fill="#FEFEFE" mask="url(#mask-2)"></path>
                        </g>
                        <g id="Group-8" transform="translate(11.304348, 0.000000)">
                            <mask id="mask-4" fill="white">
                                <use xlink:href="#path-3"></use>
                            </mask>
                            <g id="Clip-7"></g>
                            <path d="M9.9926087,1.49913043 L9.95173913,0.426086957 L0.838695652,0.426086957 L0.838695652,2.74086957 L7.1726087,2.74086957 C7.00391304,4.13391304 6.46304348,6.50434783 4.73521739,8.36 L4.43086957,8.68695652 L0.838695652,8.68695652 L0.838695652,10.8478261 L3.57695652,10.8478261 L4.42478261,10.8478261 L5.58217391,10.8478261 L4.42478261,11.6417391 L4.42478261,17.4426087 L1.85608696,17.4426087 L1.85608696,19.8521739 L7.17173913,19.8521739 L7.17173913,10.8478261 L9.99347826,10.8478261 L9.99347826,8.68695652 L7.82130435,8.68695652 C10.0952174,5.4 9.99869565,1.67478261 9.9926087,1.49913043" id="Fill-6" fill="#FEFEFE" mask="url(#mask-4)"></path>
                        </g>
                        <g id="Group-11" transform="translate(25.217391, 0.000000)">
                            <mask id="mask-6" fill="white">
                                <use xlink:href="#path-5"></use>
                            </mask>
                            <g id="Clip-10"></g>
                            <polygon id="Fill-9" fill="#FEFEFE" mask="url(#mask-6)" points="20.3862609 3.50704348 20.3862609 1.34617391 4.92017391 1.34617391 5.04626087 0.437478261 1.69321739 0.437478261 1.56713043 1.34617391 0.241043478 1.34617391 0.241043478 3.50704348 1.26626087 3.50704348 0.241043478 10.860087 2.14713043 10.860087 3.59495652 10.860087 7.39408696 10.860087 8.71930435 10.860087 10.0766957 10.860087 8.71930435 11.6792174 8.71930435 14.140087 0.241043478 14.140087 0.241043478 16.3018261 8.71930435 16.3018261 8.71930435 19.8522609 12.0723478 19.8522609 12.0723478 16.3018261 20.3862609 16.3018261 20.3862609 14.140087 12.0723478 14.140087 12.0723478 10.860087 20.3862609 10.860087 20.3862609 8.69834783 12.0723478 8.69834783 12.0723478 5.64878261 8.71930435 5.64878261 8.71930435 8.69834783 3.89582609 8.69834783 4.61930435 3.50704348"></polygon>
                        </g>
                    </g>
                </g>
            </g>
        </g>
    </g>
</svg>